<?xml version="1.0" encoding="UTF-8"?>
<svg width="32" height="32" viewBox="0 0 32 32" fill="none" xmlns="http://www.w3.org/2000/svg">
  <!-- Bakgrund -->
  <rect width="32" height="32" fill="#18181B"/>
  <!-- Hjärna -->
  <path d="M16 6C12.6863 6 10 8.68629 10 12C10 13.5 10.5 14.9 11.3 16C10.5 17.1 10 18.5 10 20C10 23.3137 12.6863 26 16 26C19.3137 26 22 23.3137 22 20C22 18.5 21.5 17.1 20.7 16C21.5 14.9 22 13.5 22 12C22 8.68629 19.3137 6 16 6Z" fill="#3B82F6"/>
  <!-- Neuroner -->
  <circle cx="16" cy="16" r="2" fill="#60A5FA"/>
  <circle cx="12" cy="12" r="1" fill="#60A5FA"/>
  <circle cx="20" cy="12" r="1" fill="#60A5FA"/>
  <circle cx="12" cy="20" r="1" fill="#60A5FA"/>
  <circle cx="20" cy="20" r="1" fill="#60A5FA"/>
</svg> 